<svg width="20" height="13" viewBox="0 0 20 13" fill="none" xmlns="http://www.w3.org/2000/svg">
<path d="M8.01562 3.20312C8.01562 3.92708 7.80469 4.53125 7.38281 5.01562C6.96094 5.49479 6.36719 5.81771 5.60156 5.98438V6.04688C6.51823 6.16146 7.20573 6.44792 7.66406 6.90625C8.1224 7.35938 8.35156 7.96354 8.35156 8.71875C8.35156 9.81771 7.96354 10.6667 7.1875 11.2656C6.41146 11.8594 5.30729 12.1562 3.875 12.1562C2.60938 12.1562 1.54167 11.9505 0.671875 11.5391V9.90625C1.15625 10.1458 1.66927 10.3307 2.21094 10.4609C2.7526 10.5911 3.27344 10.6562 3.77344 10.6562C4.65885 10.6562 5.32031 10.4922 5.75781 10.1641C6.19531 9.83594 6.41406 9.32812 6.41406 8.64062C6.41406 8.03125 6.17188 7.58333 5.6875 7.29688C5.20312 7.01042 4.44271 6.86719 3.40625 6.86719H2.41406V5.375H3.42188C5.24479 5.375 6.15625 4.74479 6.15625 3.48438C6.15625 2.99479 5.9974 2.61719 5.67969 2.35156C5.36198 2.08594 4.89323 1.95312 4.27344 1.95312C3.84115 1.95312 3.42448 2.01562 3.02344 2.14062C2.6224 2.26042 2.14844 2.4974 1.60156 2.85156L0.703125 1.57031C1.75 0.799479 2.96615 0.414062 4.35156 0.414062C5.5026 0.414062 6.40104 0.661458 7.04688 1.15625C7.69271 1.65104 8.01562 2.33333 8.01562 3.20312ZM19.9375 6.17969C19.9375 8.0651 19.4141 9.50781 18.3672 10.5078C17.3203 11.5026 15.8125 12 13.8438 12H10.6484V0.578125H14.1797C15.9974 0.578125 17.4115 1.06771 18.4219 2.04688C19.4323 3.02604 19.9375 4.40365 19.9375 6.17969ZM17.9688 6.24219C17.9688 3.50781 16.6901 2.14062 14.1328 2.14062H12.5156V10.4297H13.8438C16.5938 10.4297 17.9688 9.03385 17.9688 6.24219Z" fill="white"/>
</svg>
