<svg width="18" height="13" viewBox="0 0 18 13" fill="none" xmlns="http://www.w3.org/2000/svg">
<path d="M14.775 3.3H13.125V5.775H10.65V7.425H13.125V9.9H14.775V7.425H17.25V5.775H14.775V3.3ZM2.4 3.3C2.4 5.181 3.819 6.6 5.7 6.6C7.581 6.6 9 5.181 9 3.3C9 1.419 7.581 0 5.7 0C3.819 0 2.4 1.419 2.4 3.3ZM7.35 3.3C7.35 4.27185 6.67185 4.95 5.7 4.95C4.72815 4.95 4.05 4.27185 4.05 3.3C4.05 2.32815 4.72815 1.65 5.7 1.65C6.67185 1.65 7.35 2.32815 7.35 3.3ZM2.4 11.55C2.4 10.1854 3.51045 9.075 4.875 9.075H6.525C7.88955 9.075 9 10.1854 9 11.55V12.375H10.65V11.55C10.65 9.27547 8.79953 7.425 6.525 7.425H4.875C2.60047 7.425 0.75 9.27547 0.75 11.55V12.375H2.4V11.55Z" fill="#169DFF"/>
</svg>
