<svg width="44" height="53" viewBox="0 0 44 53" fill="none" xmlns="http://www.w3.org/2000/svg">
<path d="M36.7125 27.4813C36.6875 23.2188 38.6187 20.0063 42.5187 17.6375C40.3375 14.5125 37.0375 12.7937 32.6875 12.4625C28.5688 12.1375 24.0625 14.8625 22.4125 14.8625C20.6687 14.8625 16.6813 12.575 13.5438 12.575C7.06875 12.675 0.1875 17.7375 0.1875 28.0375C0.1875 31.0812 0.74375 34.225 1.85625 37.4625C3.34375 41.725 8.70625 52.1688 14.3 52C17.225 51.9313 19.2937 49.925 23.1 49.925C26.7937 49.925 28.7062 52 31.9688 52C37.6125 51.9188 42.4625 42.425 43.875 38.15C36.3063 34.5813 36.7125 27.7 36.7125 27.4813ZM30.1437 8.41875C33.3125 4.65625 33.025 1.23125 32.9313 0C30.1313 0.1625 26.8937 1.90625 25.05 4.05C23.0187 6.35 21.825 9.19375 22.0812 12.4C25.1062 12.6312 27.8687 11.075 30.1437 8.41875Z" fill="black"/>
</svg>
