<svg width="36" height="36" viewBox="0 0 36 36" fill="none" xmlns="http://www.w3.org/2000/svg">
<circle cx="18" cy="18" r="18" fill="white"/>
<path d="M15.6562 22.4422L16.3615 23.1439L17.0668 22.4422L16.3615 21.7333L17.0669 22.4422L17.067 22.442L17.0677 22.4414L17.0701 22.4389L17.08 22.4291L17.1189 22.3904L17.2691 22.241L17.8273 21.6856L19.7203 19.8024L24.5719 14.9756L23.1613 13.5577L18.3097 18.3845L16.4168 20.2678L16.3615 20.3227L12.8386 16.8178L11.428 18.2357L15.6562 22.4422ZM29 18C29 24.0751 24.0751 29 18 29C11.9249 29 7 24.0751 7 18C7 11.9249 11.9249 7 18 7C24.0751 7 29 11.9249 29 18Z" stroke="#6EBB49" stroke-width="2"/>
</svg>
