<svg width="36" height="40" viewBox="0 0 36 40" fill="none" xmlns="http://www.w3.org/2000/svg">
<path fill-rule="evenodd" clip-rule="evenodd" d="M2.57143 0C3.25341 0 3.90747 0.263392 4.3897 0.732233C4.87194 1.20107 5.14286 1.83696 5.14286 2.5V7.7525C7.28239 5.63068 9.94225 4.07327 12.8719 3.22696C15.8016 2.38065 18.9046 2.2733 21.8887 2.91501C24.8728 3.55673 27.6398 4.92639 29.9291 6.895C32.2183 8.8636 33.9545 11.3663 34.974 14.1675C35.0977 14.4794 35.1558 14.8122 35.1449 15.1463C35.1339 15.4804 35.0542 15.809 34.9104 16.1126C34.7665 16.4163 34.5615 16.6888 34.3075 16.914C34.0535 17.1393 33.7555 17.3127 33.4314 17.4241C33.1072 17.5354 32.7633 17.5824 32.4201 17.5623C32.0769 17.5422 31.7413 17.4554 31.4332 17.307C31.1252 17.1587 30.8508 16.9517 30.6264 16.6984C30.402 16.4452 30.2322 16.1507 30.1269 15.8325C29.3506 13.6995 27.9937 11.8113 26.2008 10.3689C24.4078 8.9266 22.2459 7.98421 19.9454 7.6422C17.645 7.30019 15.2922 7.57138 13.1378 8.42685C10.9834 9.28233 9.10811 10.69 7.71171 12.5H15.4286C16.1106 12.5 16.7646 12.7634 17.2468 13.2322C17.7291 13.7011 18 14.337 18 15C18 15.663 17.7291 16.2989 17.2468 16.7678C16.7646 17.2366 16.1106 17.5 15.4286 17.5H2.57143C1.88944 17.5 1.23539 17.2366 0.753154 16.7678C0.270917 16.2989 0 15.663 0 15V2.5C0 1.83696 0.270917 1.20107 0.753154 0.732233C1.23539 0.263392 1.88944 0 2.57143 0ZM2.592 22.6425C2.91043 22.5332 3.24791 22.4859 3.58514 22.5033C3.92238 22.5208 4.25278 22.6027 4.55746 22.7443C4.86215 22.8859 5.13517 23.0845 5.36091 23.3287C5.58666 23.5729 5.76071 23.8579 5.87314 24.1675C6.64936 26.3005 8.00626 28.1887 9.79925 29.6311C11.5922 31.0734 13.7541 32.0158 16.0546 32.3578C18.355 32.6998 20.7078 32.4286 22.8622 31.5731C25.0166 30.7177 26.8919 29.31 28.2883 27.5H20.5714C19.8894 27.5 19.2354 27.2366 18.7532 26.7678C18.2709 26.2989 18 25.663 18 25C18 24.337 18.2709 23.7011 18.7532 23.2322C19.2354 22.7634 19.8894 22.5 20.5714 22.5H33.4286C34.1106 22.5 34.7646 22.7634 35.2468 23.2322C35.7291 23.7011 36 24.337 36 25V37.5C36 38.163 35.7291 38.7989 35.2468 39.2678C34.7646 39.7366 34.1106 40 33.4286 40C32.7466 40 32.0925 39.7366 31.6103 39.2678C31.1281 38.7989 30.8571 38.163 30.8571 37.5V32.2475C28.7176 34.3693 26.0577 35.9267 23.1281 36.773C20.1984 37.6194 17.0954 37.7267 14.1113 37.085C11.1272 36.4433 8.36016 35.0736 6.07091 33.105C3.78167 31.1364 2.04552 28.6337 1.026 25.8325C0.913527 25.5229 0.864881 25.1948 0.882841 24.8669C0.900801 24.5391 0.985014 24.2179 1.13067 23.9216C1.27633 23.6254 1.48058 23.36 1.73176 23.1405C1.98294 22.921 2.27612 22.7518 2.59457 22.6425H2.592Z" fill="#F7D40C"/>
</svg>
