<svg width="29" height="33" viewBox="0 0 29 33" fill="none" xmlns="http://www.w3.org/2000/svg">
<path d="M25.4437 0.0700684H4.08766C2.28664 0.0700684 0.820312 1.56136 0.820312 3.40935V25.3253C0.820312 27.1733 2.28653 28.6646 4.08755 28.6646H22.1607L21.3159 25.6657L23.3559 27.5947L25.2843 29.4102L28.7109 32.4901V3.40935C28.7109 1.56136 27.2447 0.0700684 25.4437 0.0700684ZM19.2919 21.2405C19.2919 21.2405 18.7181 20.5434 18.24 19.9274C20.3278 19.3276 21.1247 17.9984 21.1247 17.9984C20.4712 18.4361 19.8497 18.7441 19.2919 18.9547C18.495 19.2952 17.73 19.522 16.981 19.6518C15.4509 19.9436 14.0484 19.8626 12.8532 19.6356C11.9446 19.4572 11.1637 19.1979 10.5103 18.9386C10.1437 18.7927 9.74531 18.6144 9.34678 18.3874C9.29906 18.355 9.25123 18.3388 9.20341 18.3063C9.17159 18.2902 9.15558 18.274 9.13967 18.2578C8.85281 18.0957 8.69342 17.9822 8.69342 17.9822C8.69342 17.9822 9.45845 19.279 11.4825 19.8949C11.0044 20.511 10.4147 21.2404 10.4147 21.2404C6.89241 21.1269 5.55377 18.7765 5.55377 18.7765C5.55377 13.5569 7.84875 9.32599 7.84875 9.32599C10.1437 7.57529 12.3272 7.62394 12.3272 7.62394L12.4865 7.81852C9.61784 8.66124 8.295 9.94199 8.295 9.94199C8.295 9.94199 8.64559 9.74752 9.23522 9.47193C10.9406 8.70999 12.2953 8.49934 12.8532 8.4507C12.9487 8.43441 13.0285 8.41823 13.1241 8.41823C14.1921 8.27672 15.273 8.26586 16.3435 8.38587C17.8575 8.56417 19.4832 9.01805 21.1406 9.94199C21.1406 9.94199 19.8816 8.72628 17.1722 7.88335L17.3953 7.62405C17.3953 7.62405 19.5787 7.57529 21.8737 9.3261C21.8737 9.3261 24.1688 13.5569 24.1688 18.7765C24.1688 18.7765 22.814 21.1269 19.2919 21.2404V21.2405ZM11.8809 13.6703C10.9725 13.6703 10.2554 14.4808 10.2554 15.4696C10.2554 16.4584 10.9884 17.2689 11.8809 17.2689C12.7894 17.2689 13.5065 16.4584 13.5065 15.4696C13.5225 14.4808 12.7894 13.6703 11.881 13.6703H11.8809ZM17.6982 13.6703C16.7897 13.6703 16.0725 14.4808 16.0725 15.4696C16.0725 16.4584 16.8057 17.2689 17.6982 17.2689C18.6066 17.2689 19.3237 16.4584 19.3237 15.4696C19.3237 14.4808 18.6066 13.6703 17.6982 13.6703Z" fill="white"/>
</svg>
