<svg width="34" height="25" viewBox="0 0 34 25" fill="none" xmlns="http://www.w3.org/2000/svg">
<path d="M28.55 6.6H25.25V11.55H20.3V14.85H25.25V19.8H28.55V14.85H33.5V11.55H28.55V6.6ZM3.8 6.6C3.8 10.362 6.638 13.2 10.4 13.2C14.162 13.2 17 10.362 17 6.6C17 2.838 14.162 0 10.4 0C6.638 0 3.8 2.838 3.8 6.6ZM13.7 6.6C13.7 8.5437 12.3437 9.9 10.4 9.9C8.4563 9.9 7.1 8.5437 7.1 6.6C7.1 4.6563 8.4563 3.3 10.4 3.3C12.3437 3.3 13.7 4.6563 13.7 6.6ZM3.8 23.1C3.8 20.3709 6.0209 18.15 8.75 18.15H12.05C14.7791 18.15 17 20.3709 17 23.1V24.75H20.3V23.1C20.3 18.5509 16.5991 14.85 12.05 14.85H8.75C4.20095 14.85 0.5 18.5509 0.5 23.1V24.75H3.8V23.1Z" fill="#2A2A34"/>
</svg>
