<svg width="44" height="32" viewBox="0 0 44 32" fill="none" xmlns="http://www.w3.org/2000/svg">
<path d="M42.8196 15.0325C40.8752 6.31646 37.949 1.66441 33.6084 0.393684C32.6959 0.128312 31.7495 -0.00426499 30.7986 0.000104582C29.5418 0.000104582 28.4472 0.303697 27.2894 0.625468C25.8942 1.01359 24.3092 1.45444 21.9981 1.45444C19.6871 1.45444 18.1011 1.0145 16.7031 0.626377C15.5444 0.303697 14.4508 0.000104582 13.1976 0.000104582C12.2144 -0.00327592 11.2354 0.128879 10.2889 0.392775C5.97111 1.65805 3.04677 6.30828 1.07399 15.027C-1.0473 24.4093 -0.00315395 30.333 4.00199 31.7073C4.551 31.8992 5.12865 31.9981 5.71076 32C8.4545 32 10.6546 29.734 12.158 27.8788C13.8567 25.7791 15.8451 24.7138 21.9981 24.7138C27.4938 24.7138 29.7682 25.4528 31.7328 27.8788C32.9676 29.404 34.1346 30.4711 35.2988 31.1429C36.8471 32.0354 38.3946 32.2336 39.8971 31.7219C42.264 30.9211 43.6208 28.8041 43.9306 25.4282C44.1662 22.8395 43.8032 19.4391 42.8196 15.0325ZM17.5979 14.5434H14.6644V17.4521C14.6644 17.8378 14.5098 18.2077 14.2348 18.4805C13.9597 18.7532 13.5866 18.9064 13.1976 18.9064C12.8086 18.9064 12.4355 18.7532 12.1605 18.4805C11.8854 18.2077 11.7309 17.8378 11.7309 17.4521V14.5434H8.79735C8.40835 14.5434 8.03527 14.3902 7.7602 14.1175C7.48513 13.8447 7.3306 13.4748 7.3306 13.0891C7.3306 12.7034 7.48513 12.3335 7.7602 12.0607C8.03527 11.788 8.40835 11.6348 8.79735 11.6348H11.7309V8.72611C11.7309 8.3404 11.8854 7.97048 12.1605 7.69774C12.4355 7.425 12.8086 7.27178 13.1976 7.27178C13.5866 7.27178 13.9597 7.425 14.2348 7.69774C14.5098 7.97048 14.6644 8.3404 14.6644 8.72611V11.6348H17.5979C17.9869 11.6348 18.3599 11.788 18.635 12.0607C18.9101 12.3335 19.0646 12.7034 19.0646 13.0891C19.0646 13.4748 18.9101 13.8447 18.635 14.1175C18.3599 14.3902 17.9869 14.5434 17.5979 14.5434ZM25.2983 14.907C24.9357 14.907 24.5812 14.8004 24.2797 14.6007C23.9782 14.4009 23.7432 14.117 23.6044 13.7848C23.4657 13.4526 23.4294 13.0871 23.5001 12.7345C23.5708 12.3818 23.7455 12.0579 24.0019 11.8036C24.2583 11.5494 24.585 11.3763 24.9406 11.3061C25.2963 11.236 25.6649 11.272 25.9999 11.4096C26.3349 11.5472 26.6213 11.7802 26.8228 12.0791C27.0242 12.3781 27.1317 12.7296 27.1317 13.0891C27.1317 13.5713 26.9386 14.0336 26.5947 14.3746C26.2509 14.7155 25.7846 14.907 25.2983 14.907ZM29.3319 18.9064C28.9691 18.9064 28.6144 18.7997 28.3128 18.5998C28.0112 18.3998 27.7762 18.1156 27.6376 17.7832C27.4989 17.4507 27.4629 17.085 27.534 16.7322C27.6051 16.3794 27.7802 16.0555 28.0371 15.8015C28.2939 15.5474 28.621 15.3746 28.977 15.305C29.333 15.2354 29.7017 15.272 30.0367 15.4103C30.3716 15.5486 30.6576 15.7823 30.8585 16.0819C31.0595 16.3814 31.1662 16.7333 31.1653 17.0931C31.1641 17.5744 30.9704 18.0357 30.6267 18.3756C30.283 18.7155 29.8173 18.9065 29.3319 18.9064ZM29.3319 10.9076C28.9692 10.9076 28.6148 10.801 28.3133 10.6012C28.0118 10.4015 27.7768 10.1176 27.638 9.78538C27.4992 9.4532 27.4629 9.08768 27.5337 8.73503C27.6044 8.38239 27.779 8.05847 28.0354 7.80423C28.2918 7.54999 28.6185 7.37685 28.9742 7.30671C29.3298 7.23656 29.6985 7.27256 30.0335 7.41016C30.3685 7.54775 30.6549 7.78076 30.8563 8.07971C31.0578 8.37867 31.1653 8.73014 31.1653 9.08969C31.1653 9.57183 30.9721 10.0342 30.6283 10.3752C30.2845 10.7161 29.8181 10.9076 29.3319 10.9076ZM33.3654 14.907C33.0028 14.907 32.6483 14.8004 32.3468 14.6007C32.0453 14.4009 31.8103 14.117 31.6716 13.7848C31.5328 13.4526 31.4965 13.0871 31.5672 12.7345C31.638 12.3818 31.8126 12.0579 32.069 11.8036C32.3254 11.5494 32.6521 11.3763 33.0077 11.3061C33.3634 11.236 33.732 11.272 34.0671 11.4096C34.4021 11.5472 34.6884 11.7802 34.8899 12.0791C35.0913 12.3781 35.1989 12.7296 35.1989 13.0891C35.1989 13.5713 35.0057 14.0336 34.6619 14.3746C34.318 14.7155 33.8517 14.907 33.3654 14.907Z" fill="#F7D40C"/>
</svg>
