<svg width="26" height="26" viewBox="0 0 26 26" fill="none" xmlns="http://www.w3.org/2000/svg">
<path d="M13.0001 0.586792C6.20447 0.586792 0.675781 6.11548 0.675781 12.9111V18.0171C0.675781 19.2791 1.78127 20.3057 3.14065 20.3057H4.37308C4.69994 20.3057 5.01341 20.1759 5.24454 19.9447C5.47567 19.7136 5.60551 19.4001 5.60551 19.0733V12.7349C5.60551 12.408 5.47567 12.0945 5.24454 11.8634C5.01341 11.6323 4.69994 11.5024 4.37308 11.5024H3.25403C3.93926 6.73293 8.04326 3.05166 13.0001 3.05166C17.9569 3.05166 22.061 6.73293 22.7462 11.5024H21.6271C21.3003 11.5024 20.9868 11.6323 20.7557 11.8634C20.5245 12.0945 20.3947 12.408 20.3947 12.7349V20.3057C20.3947 21.6651 19.2892 22.7706 17.9298 22.7706H15.465V21.5381H10.5352V25.2354H17.9298C20.6486 25.2354 22.8596 23.0245 22.8596 20.3057C24.2189 20.3057 25.3244 19.2791 25.3244 18.0171V12.9111C25.3244 6.11548 19.7957 0.586792 13.0001 0.586792Z" fill="white"/>
</svg>
