<svg width="48" height="48" viewBox="0 0 48 48" fill="none" xmlns="http://www.w3.org/2000/svg">
<path d="M24 8.89728C15.729 8.89728 9 15.6263 9 23.8973C9 32.1683 15.729 38.8973 24 38.8973C32.271 38.8973 39 32.1683 39 23.8973C39 15.6263 32.271 8.89728 24 8.89728ZM24 35.8973C17.3835 35.8973 12 30.5138 12 23.8973C12 17.2808 17.3835 11.8973 24 11.8973C30.6165 11.8973 36 17.2808 36 23.8973C36 30.5138 30.6165 35.8973 24 35.8973Z" fill="white"/>
<path d="M22.5 22.3973H25.5V31.3973H22.5V22.3973ZM22.5 16.3973H25.5V19.3973H22.5V16.3973Z" fill="white"/>
</svg>
