<svg width="46" height="37" viewBox="0 0 46 37" fill="none" xmlns="http://www.w3.org/2000/svg">
<path d="M40.8828 0.937988H4.88281C2.40106 0.937988 0.382812 2.95624 0.382812 5.43799V32.438C0.382812 34.9197 2.40106 36.938 4.88281 36.938H40.8828C43.3646 36.938 45.3828 34.9197 45.3828 32.438V5.43799C45.3828 2.95624 43.3646 0.937988 40.8828 0.937988ZM40.8828 5.43799V6.58774L22.8828 20.5895L4.88281 6.58999V5.43799H40.8828ZM4.88281 32.438V12.287L21.5013 25.2132C21.8953 25.5227 22.3818 25.6909 22.8828 25.6909C23.3838 25.6909 23.8703 25.5227 24.2643 25.2132L40.8828 12.287L40.8873 32.438H4.88281Z" fill="#F7D40C"/>
</svg>
