<svg width="34" height="28" viewBox="0 0 34 28" fill="none" xmlns="http://www.w3.org/2000/svg">
<path d="M30.4121 0.453491H3.41211C1.5508 0.453491 0.0371094 1.96718 0.0371094 3.82849V24.0785C0.0371094 25.9398 1.5508 27.4535 3.41211 27.4535H30.4121C32.2734 27.4535 33.7871 25.9398 33.7871 24.0785V3.82849C33.7871 1.96718 32.2734 0.453491 30.4121 0.453491ZM30.4121 3.82849V4.6908L16.9121 15.1921L3.41211 4.69249V3.82849H30.4121ZM3.41211 24.0785V8.96524L15.876 18.6599C16.1715 18.892 16.5364 19.0182 16.9121 19.0182C17.2879 19.0182 17.6527 18.892 17.9482 18.6599L30.4121 8.96524L30.4155 24.0785H3.41211Z" fill="#2A2A34"/>
</svg>
