<svg width="45" height="43" viewBox="0 0 45 43" fill="none" xmlns="http://www.w3.org/2000/svg">
<path d="M39.9828 14.2011H27.6364L30.107 6.7583C30.5514 5.4143 30.327 3.92441 29.502 2.77494C28.677 1.62546 27.3394 0.937988 25.9292 0.937988H22.3828C21.7294 0.937988 21.1112 1.22978 20.691 1.73378L10.351 14.2011H4.78281C2.35621 14.2011 0.382812 16.184 0.382812 18.6222V38.5169C0.382812 40.9551 2.35621 42.938 4.78281 42.938H34.0582C34.9534 42.935 35.8265 42.6591 36.5623 42.1468C37.298 41.6345 37.8617 40.9098 38.1788 40.0687L44.2442 23.8191C44.3363 23.5709 44.3832 23.3081 44.3828 23.0433V18.6222C44.3828 16.184 42.4094 14.2011 39.9828 14.2011ZM4.78281 18.6222H9.18281V38.5169H4.78281V18.6222ZM39.9828 22.6431L34.0582 38.5169H13.5828V17.2119L23.4124 5.35904H25.9336L22.4972 15.7109C22.3857 16.0432 22.3545 16.3974 22.4064 16.7442C22.4583 17.091 22.5918 17.4203 22.7957 17.7049C22.9996 17.9895 23.268 18.2212 23.5788 18.3807C23.8896 18.5402 24.2338 18.623 24.5828 18.6222H39.9828V22.6431Z" fill="#F7D40C"/>
</svg>
