<svg width="19" height="24" viewBox="0 0 19 24" fill="none" xmlns="http://www.w3.org/2000/svg">
<path d="M9.21533 0.715088C6.11371 0.715088 3.59033 3.23846 3.59033 6.34009V9.71509H2.46533C1.22446 9.71509 0.215332 10.7242 0.215332 11.9651V20.9651C0.215332 22.206 1.22446 23.2151 2.46533 23.2151H15.9653C17.2062 23.2151 18.2153 22.206 18.2153 20.9651V11.9651C18.2153 10.7242 17.2062 9.71509 15.9653 9.71509H14.8403V6.34009C14.8403 3.23846 12.317 0.715088 9.21533 0.715088ZM15.9653 11.9651L15.9676 20.9651H2.46533V11.9651H15.9653ZM5.84033 9.71509V6.34009C5.84033 4.47934 7.35458 2.96509 9.21533 2.96509C11.0761 2.96509 12.5903 4.47934 12.5903 6.34009V9.71509H5.84033Z" fill="#F7D40C"/>
</svg>
