<svg width="13" height="16" viewBox="0 0 13 16" fill="none" xmlns="http://www.w3.org/2000/svg">
<path d="M6.14453 0.476746C4.07678 0.476746 2.39453 2.159 2.39453 4.22675V6.47675H1.64453C0.817281 6.47675 0.144531 7.1495 0.144531 7.97675V13.9767C0.144531 14.804 0.817281 15.4767 1.64453 15.4767H10.6445C11.4718 15.4767 12.1445 14.804 12.1445 13.9767V7.97675C12.1445 7.1495 11.4718 6.47675 10.6445 6.47675H9.89453V4.22675C9.89453 2.159 8.21228 0.476746 6.14453 0.476746ZM10.6445 7.97675L10.646 13.9767H1.64453V7.97675H10.6445ZM3.89453 6.47675V4.22675C3.89453 2.98625 4.90403 1.97675 6.14453 1.97675C7.38503 1.97675 8.39453 2.98625 8.39453 4.22675V6.47675H3.89453Z" fill="#FF5A5A"/>
</svg>
