<svg width="54" height="68" viewBox="0 0 54 68" fill="none" xmlns="http://www.w3.org/2000/svg">
<path d="M53.6666 34C53.6666 30.3233 50.6766 27.3333 46.9999 27.3333H43.6666V17.3333C43.6666 8.14329 36.1899 0.666626 26.9999 0.666626C17.8099 0.666626 10.3333 8.14329 10.3333 17.3333V27.3333H6.99992C3.32325 27.3333 0.333252 30.3233 0.333252 34V60.6666C0.333252 64.3433 3.32325 67.3333 6.99992 67.3333H46.9999C50.6766 67.3333 53.6666 64.3433 53.6666 60.6666V34ZM16.9999 17.3333C16.9999 11.82 21.4866 7.33329 26.9999 7.33329C32.5132 7.33329 36.9999 11.82 36.9999 17.3333V27.3333H16.9999V17.3333Z" fill="white"/>
</svg>
