<svg width="33" height="41" viewBox="0 0 33 41" fill="none" xmlns="http://www.w3.org/2000/svg">
<path d="M26.3828 12.938V10.938C26.3828 5.42399 21.8968 0.937988 16.3828 0.937988C10.8688 0.937988 6.38281 5.42399 6.38281 10.938V16.938H4.38281C2.17681 16.938 0.382812 18.732 0.382812 20.938V36.938C0.382812 39.144 2.17681 40.938 4.38281 40.938H28.3828C30.5888 40.938 32.3828 39.144 32.3828 36.938V20.938C32.3828 18.732 30.5888 16.938 28.3828 16.938H10.3828V10.938C10.3828 7.62999 13.0748 4.93799 16.3828 4.93799C19.6908 4.93799 22.3828 7.62999 22.3828 10.938V12.938H26.3828ZM28.3828 20.938L28.3868 36.938H4.38281V20.938H28.3828Z" fill="#FF5A5A"/>
</svg>
