<svg width="16" height="16" viewBox="0 0 16 16" fill="none" xmlns="http://www.w3.org/2000/svg">
<path d="M8 0.5C5.81738 0.5 4.04167 2.27079 4.04167 4.44737C4.04167 6.62395 5.81738 8.39474 8 8.39474C10.1826 8.39474 11.9583 6.62395 11.9583 4.44737C11.9583 2.27079 10.1826 0.5 8 0.5ZM8 6.81579C6.69058 6.81579 5.625 5.75316 5.625 4.44737C5.625 3.14158 6.69058 2.07895 8 2.07895C9.30942 2.07895 10.375 3.14158 10.375 4.44737C10.375 5.75316 9.30942 6.81579 8 6.81579ZM15.125 15.5V14.7105C15.125 11.6639 12.6384 9.18421 9.58333 9.18421H6.41667C3.36083 9.18421 0.875 11.6639 0.875 14.7105V15.5H2.45833V14.7105C2.45833 12.5339 4.23404 10.7632 6.41667 10.7632H9.58333C11.766 10.7632 13.5417 12.5339 13.5417 14.7105V15.5H15.125Z" fill="#ACACAC"/>
</svg>
