<svg width="38" height="40" viewBox="0 0 38 40" fill="none" xmlns="http://www.w3.org/2000/svg">
<path d="M9.21055 2.99779H2.19454C0.982491 2.99779 0 3.96108 0 5.14944V11.193H9.21055V2.99779Z" fill="#F7D40C"/>
<path d="M0 33.0934H11.7533V29.1461C11.7533 28.3811 12.3859 27.761 13.1659 27.761C13.946 27.761 14.5786 28.3811 14.5786 29.1461V34.4784C14.5786 35.2432 13.946 35.8635 13.1659 35.8635H0V37.8484C0 39.0367 0.982491 40 2.19454 40H18.1054V21.5976H0V33.0934Z" fill="#F7D40C"/>
<path d="M35.8054 2.99779H32.8082C33.1942 3.93379 33.4089 4.95498 33.4089 6.02478C33.4089 7.37102 33.0677 8.68029 32.4305 9.84649H38V5.14944C38 3.96108 37.0175 2.99779 35.8054 2.99779Z" fill="#F7D40C"/>
<path d="M30.3826 12.608C29.9489 13.2724 29.6095 13.9884 29.3696 14.7492L28.1081 18.7499C27.6949 20.0601 26.4774 20.9404 25.0769 20.9404C23.6771 20.9396 22.46 20.0579 22.0482 18.7466L20.7274 14.5415C20.3609 13.3754 19.7312 12.2671 18.9063 11.3368C17.6004 9.86436 16.881 7.97767 16.881 6.02477C16.881 4.95484 17.0956 3.93366 17.4817 2.99779H12.0358V12.578C12.0358 13.3429 11.4032 13.9631 10.6232 13.9631H0V18.8274H19.518C20.2981 18.8274 20.9307 19.4475 20.9307 20.2125V24.3676H28.5589C29.339 24.3676 29.9715 24.9876 29.9715 25.7526V31.1542H38V12.6166H30.5366C30.4845 12.6166 30.4331 12.6132 30.3826 12.608Z" fill="#F7D40C"/>
<path d="M27.1462 32.5394V27.1378H20.9306V40H35.8054C37.0175 40 38 39.0367 38 37.8484V33.9244H28.5589C27.7787 33.9244 27.1462 33.3042 27.1462 32.5394Z" fill="#F7D40C"/>
<path d="M22.7525 13.9301L24.0735 18.1352C24.2092 18.5676 24.6168 18.8627 25.0782 18.863C25.5397 18.863 25.9474 18.5684 26.0837 18.1363L27.3452 14.1356C27.831 12.5949 28.6547 11.2055 29.7146 10.0516C30.694 8.98469 31.29 7.57321 31.29 6.02488C31.29 2.69749 28.5387 0 25.145 0C21.7513 0 19 2.69749 19 6.02488C19 7.53595 19.5677 8.91655 20.5055 9.97374C21.5235 11.1219 22.2958 12.4761 22.7525 13.9301ZM25.178 2.9979C26.8098 2.9979 28.1323 4.2947 28.1323 5.89441C28.1323 7.49426 26.8098 8.79093 25.178 8.79093C23.5464 8.79093 22.2238 7.49426 22.2238 5.89441C22.2238 4.2947 23.5464 2.9979 25.178 2.9979Z" fill="#F7D40C"/>
</svg>
