<svg width="28" height="31" viewBox="0 0 28 31" fill="none" xmlns="http://www.w3.org/2000/svg">
<path d="M3.5 30.8973H24.5C26.1545 30.8973 27.5 29.5518 27.5 27.8973V11.3973C27.5 10.9995 27.342 10.6179 27.0607 10.3366C26.7794 10.0553 26.3978 9.89728 26 9.89728H21.5V8.39728C21.5 4.26178 18.1355 0.897278 14 0.897278C9.8645 0.897278 6.5 4.26178 6.5 8.39728V9.89728H2C1.60218 9.89728 1.22064 10.0553 0.93934 10.3366C0.658035 10.6179 0.5 10.9995 0.5 11.3973V27.8973C0.5 29.5518 1.8455 30.8973 3.5 30.8973ZM9.5 8.39728C9.5 5.91628 11.519 3.89728 14 3.89728C16.481 3.89728 18.5 5.91628 18.5 8.39728V9.89728H9.5V8.39728ZM3.5 12.8973H6.5V15.8973H9.5V12.8973H18.5V15.8973H21.5V12.8973H24.5L24.503 27.8973H3.5V12.8973Z" fill="white"/>
</svg>
