<svg width="24" height="24" viewBox="0 0 24 24" fill="none" xmlns="http://www.w3.org/2000/svg">
<path d="M12 19.7466C12.5523 19.7466 13 19.2989 13 18.7466C13 18.1943 12.5523 17.7466 12 17.7466C11.4477 17.7466 11 18.1943 11 18.7466C11 19.2989 11.4477 19.7466 12 19.7466Z" fill="#2A2A34"/>
<path d="M12 17C11.7348 17 11.4804 16.9247 11.2929 16.7908C11.1054 16.6568 11 16.4752 11 16.2857V7.71429C11 7.52485 11.1054 7.34316 11.2929 7.20921C11.4804 7.07526 11.7348 7 12 7C12.2652 7 12.5196 7.07526 12.7071 7.20921C12.8946 7.34316 13 7.52485 13 7.71429V16.2857C13 16.4752 12.8946 16.6568 12.7071 16.7908C12.5196 16.9247 12.2652 17 12 17Z" fill="#2A2A34"/>
<path d="M10.2034 2.14845C10.3819 1.80057 10.6444 1.51044 10.9634 1.30841C11.2824 1.10638 11.6463 0.99986 12.0169 1C12.3876 1.00014 12.7513 1.10693 13.0702 1.30921C13.3891 1.51149 13.6514 1.80181 13.8297 2.14983L22.7492 19.728C22.9203 20.0652 23.0066 20.4443 22.9996 20.8281C22.9926 21.2118 22.8927 21.587 22.7095 21.9169C22.5263 22.2468 22.2662 22.52 21.9547 22.7098C21.6432 22.8996 21.291 22.9994 20.9326 22.9994H3.114C2.75159 23.0081 2.39341 22.9146 2.07538 22.7283C1.75735 22.542 1.49065 22.2694 1.30201 21.9379C1.11337 21.6063 1.00943 21.2275 1.00061 20.8394C0.991791 20.4513 1.0784 20.0675 1.25175 19.7266L10.2034 2.14845ZM2.38066 20.3847C2.3145 20.515 2.28175 20.6617 2.28576 20.8099C2.28977 20.9582 2.33039 21.1026 2.40348 21.2285C2.47657 21.3545 2.57953 21.4574 2.70186 21.5269C2.82418 21.5964 2.96152 21.6299 3.09987 21.624H20.9326C21.0684 21.6239 21.2018 21.586 21.3198 21.5141C21.4378 21.4421 21.5363 21.3385 21.6057 21.2135C21.675 21.0884 21.7129 20.9462 21.7154 20.8008C21.718 20.6554 21.6852 20.5118 21.6203 20.384L12.7027 2.80935C12.6351 2.67784 12.5358 2.56817 12.4151 2.49175C12.2945 2.41534 12.1569 2.375 12.0167 2.37493C11.8766 2.37486 11.7389 2.41507 11.6182 2.49136C11.4975 2.56764 11.3981 2.67722 11.3304 2.80866L2.38002 20.3847H2.38066Z" fill="#2A2A34"/>
</svg>
