<svg width="30" height="42" viewBox="0 0 30 42" fill="none" xmlns="http://www.w3.org/2000/svg">
<path d="M15 42L17.1429 37.8V31.5H27.8571C28.4255 31.5 28.9705 31.2788 29.3724 30.8849C29.7742 30.4911 30 29.957 30 29.4V26.0694C30 24.9648 29.5414 23.8812 28.7443 23.1L25.7143 20.1306V12.6C26.2826 12.6 26.8277 12.3787 27.2295 11.9849C27.6314 11.5911 27.8571 11.057 27.8571 10.5V4.2C27.8571 1.8837 25.935 0 23.5714 0H6.42857C4.065 0 2.14286 1.8837 2.14286 4.2V10.5C2.14286 11.057 2.36862 11.5911 2.77049 11.9849C3.17235 12.3787 3.71739 12.6 4.28571 12.6V20.1306L1.25571 23.1C0.453916 23.8888 0.00258263 24.956 0 26.0694V29.4C0 29.957 0.225765 30.4911 0.627629 30.8849C1.02949 31.2788 1.57454 31.5 2.14286 31.5H12.8571V37.8L15 42ZM6.42857 4.2H23.5714V8.4H6.42857V4.2ZM4.28571 26.0694L7.94357 22.4847C8.14295 22.29 8.30106 22.0586 8.40882 21.8038C8.51657 21.549 8.57184 21.2758 8.57143 21V12.6H21.4286V21C21.4286 21.5586 21.6536 22.092 22.0564 22.4847L25.7143 26.0694V27.3H4.28571V26.0694Z" fill="#F7D40C"/>
</svg>
