<svg width="18" height="14" viewBox="0 0 18 14" fill="none" xmlns="http://www.w3.org/2000/svg">
<path d="M15.7061 0.226746H2.20605C1.2754 0.226746 0.518555 0.983589 0.518555 1.91425V12.0392C0.518555 12.9699 1.2754 13.7267 2.20605 13.7267H15.7061C16.6367 13.7267 17.3936 12.9699 17.3936 12.0392V1.91425C17.3936 0.983589 16.6367 0.226746 15.7061 0.226746ZM15.7061 1.91425V2.3454L8.95605 7.59606L2.20605 2.34625V1.91425H15.7061ZM2.20605 12.0392V4.48262L8.43799 9.32996C8.58574 9.44602 8.76818 9.5091 8.95605 9.5091C9.14393 9.5091 9.32637 9.44602 9.47412 9.32996L15.7061 4.48262L15.7077 12.0392H2.20605Z" fill="#169DFF"/>
</svg>
