<svg width="48" height="48" viewBox="0 0 48 48" fill="none" xmlns="http://www.w3.org/2000/svg">
<path d="M24 29.8972C27.309 29.8972 30 27.2062 30 23.8972C30 20.5882 27.309 17.8972 24 17.8972C20.691 17.8972 18 20.5882 18 23.8972C18 27.2062 20.691 29.8972 24 29.8972ZM24 20.8972C25.626 20.8972 27 22.2712 27 23.8972C27 25.5232 25.626 26.8972 24 26.8972C22.374 26.8972 21 25.5232 21 23.8972C21 22.2712 22.374 20.8972 24 20.8972Z" fill="white"/>
<path d="M10.8837 30.1012L12.3164 32.6962C13.0772 34.0717 14.9081 34.5877 16.2277 33.7912L16.9855 33.3322C17.8144 34.0149 18.7283 34.576 19.7019 35.0002V35.8972C19.7019 37.5517 20.9871 38.8972 22.5673 38.8972H25.4327C27.0129 38.8972 28.2981 37.5517 28.2981 35.8972V35.0002C29.2714 34.576 30.1852 34.0153 31.0145 33.3337L31.7723 33.7927C33.0947 34.5877 34.9214 34.0747 35.685 32.6962L37.1163 30.1027C37.496 29.4138 37.5989 28.5952 37.4026 27.8268C37.2062 27.0584 36.7266 26.4031 36.069 26.0047L35.3455 25.5667C35.4993 24.4605 35.4993 23.3369 35.3455 22.2307L36.069 21.7927C36.7263 21.3941 37.2057 20.7387 37.402 19.9705C37.5983 19.2022 37.4956 18.3838 37.1163 17.6947L35.685 15.1012C34.9243 13.7212 33.0947 13.2037 31.7723 14.0032L31.0145 14.4622C30.1856 13.7796 29.2717 13.2184 28.2981 12.7942V11.8972C28.2981 10.2427 27.0129 8.89722 25.4327 8.89722H22.5673C20.9871 8.89722 19.7019 10.2427 19.7019 11.8972V12.7942C18.7286 13.2185 17.8148 13.7791 16.9855 14.4607L16.2277 14.0017C14.9038 13.2052 13.0757 13.7212 12.315 15.0997L10.8837 17.6932C10.504 18.3822 10.4011 19.2007 10.5974 19.9691C10.7938 20.7375 11.2734 21.3928 11.931 21.7912L12.6545 22.2292C12.5001 23.3348 12.5001 24.4581 12.6545 25.5637L11.931 26.0017C11.2736 26.4007 10.7942 27.0563 10.5979 27.8248C10.4016 28.5933 10.5043 29.4119 10.8837 30.1012ZM15.6488 25.9642C15.4871 25.2882 15.4048 24.5941 15.4039 23.8972C15.4039 23.2042 15.487 22.5082 15.6474 21.8302C15.723 21.5142 15.6981 21.181 15.5766 20.8811C15.4551 20.5812 15.2436 20.331 14.974 20.1682L13.3651 19.1932L14.795 16.5997L16.4354 17.5927C16.7029 17.7548 17.0134 17.8216 17.3203 17.7832C17.6272 17.7448 17.9139 17.6032 18.1374 17.3797C19.1067 16.4145 20.2755 15.6964 21.553 15.2812C21.8464 15.1874 22.1033 14.9975 22.286 14.7393C22.4686 14.4812 22.5672 14.1685 22.5673 13.8472V11.8972H25.4327V13.8472C25.4328 14.1685 25.5314 14.4812 25.714 14.7393C25.8967 14.9975 26.1536 15.1874 26.447 15.2812C27.7243 15.697 28.893 16.4151 29.8626 17.3797C30.0863 17.6028 30.373 17.7441 30.6798 17.7825C30.9865 17.8209 31.297 17.7543 31.5646 17.5927L33.2036 16.6012L34.6363 19.1947L33.0259 20.1682C32.7566 20.3311 32.5452 20.5814 32.4237 20.8813C32.3022 21.1811 32.2773 21.5142 32.3526 21.8302C32.513 22.5082 32.5961 23.2042 32.5961 23.8972C32.5961 24.5887 32.513 25.2847 32.3512 25.9642C32.276 26.2804 32.3011 26.6136 32.4229 26.9135C32.5446 27.2133 32.7563 27.4635 33.0259 27.6262L34.6349 28.5997L33.205 31.1932L31.5646 30.2017C31.2972 30.0394 30.9866 29.9724 30.6796 30.0108C30.3727 30.0492 30.0859 30.191 29.8626 30.4147C28.8933 31.3799 27.7245 32.098 26.447 32.5132C26.1536 32.607 25.8967 32.797 25.714 33.0551C25.5314 33.3133 25.4328 33.626 25.4327 33.9472L25.4356 35.8972H22.5673V33.9472C22.5672 33.626 22.4686 33.3133 22.286 33.0551C22.1033 32.797 21.8464 32.607 21.553 32.5132C20.2757 32.0974 19.107 31.3794 18.1374 30.4147C17.9144 30.1903 17.6275 30.0483 17.3203 30.0101C17.0131 29.9719 16.7024 30.0397 16.4354 30.2032L14.7964 31.1962L13.3637 28.6027L14.974 27.6262C15.2437 27.4635 15.4554 27.2133 15.5771 26.9135C15.6989 26.6136 15.724 26.2804 15.6488 25.9642Z" fill="white"/>
</svg>
