<svg width="44" height="40" viewBox="0 0 44 40" fill="none" xmlns="http://www.w3.org/2000/svg">
<path d="M9.99897 0L34.6217 24.7112L39.0082 20.3089L41.9257 23.2369L36.8149 28.366L43.3948 34.9695C44.2017 35.7794 44.2017 37.0876 43.3948 37.8975L41.9257 39.3718C41.7343 39.5643 41.5069 39.7171 41.2566 39.8213C41.0063 39.9255 40.7379 39.9791 40.467 39.9791C40.196 39.9791 39.9276 39.9255 39.6773 39.8213C39.427 39.7171 39.1996 39.5643 39.0082 39.3718L32.3456 32.7891L27.2969 37.9182L24.3794 34.9903L28.766 30.5879L4.14332 5.8767V0H9.99897ZM30.0489 15.6989L39.8566 5.85594V0H34.0009L24.1932 9.84296L30.0489 15.6989ZM19.8067 26.0818L13.951 20.122L9.37823 24.7112L4.99167 20.3089L2.07419 23.2369L7.18495 28.366L0.605106 34.9903C0.41329 35.1824 0.26111 35.4106 0.157278 35.6618C0.0534456 35.913 0 36.1823 0 36.4543C0 36.7262 0.0534456 36.9955 0.157278 37.2467C0.26111 37.4979 0.41329 37.7261 0.605106 37.9182L2.07419 39.3926C2.88115 40.2025 4.18471 40.2025 4.99167 39.3926L11.6543 32.7891L16.703 37.9182L19.6204 34.9903L15.2339 30.5879L19.8067 26.0818Z" fill="#6EBB49"/>
</svg>
