<svg width="44" height="44" viewBox="0 0 44 44" fill="none" xmlns="http://www.w3.org/2000/svg">
<path d="M8.0135 35.2C8.1235 35.2 8.2335 35.189 8.3435 35.1725L17.5945 33.55C17.7045 33.528 17.809 33.4785 17.886 33.396L41.2005 10.0815C41.2515 10.0306 41.2919 9.97018 41.3195 9.90364C41.3471 9.83711 41.3613 9.76578 41.3613 9.69375C41.3613 9.62172 41.3471 9.55039 41.3195 9.48386C41.2919 9.41732 41.2515 9.35688 41.2005 9.306L32.0595 0.1595C31.955 0.0550001 31.8175 0 31.669 0C31.5205 0 31.383 0.0550001 31.2785 0.1595L7.964 23.474C7.8815 23.5565 7.832 23.6555 7.81 23.7655L6.1875 33.0165C6.134 33.3111 6.15311 33.6144 6.2432 33.9C6.33328 34.1856 6.49162 34.4449 6.7045 34.6555C7.0675 35.0075 7.524 35.2 8.0135 35.2ZM11.7205 25.608L31.669 5.665L35.7005 9.6965L15.752 29.6395L10.8625 30.503L11.7205 25.608ZM42.24 39.82H1.76C0.7865 39.82 0 40.6065 0 41.58V43.56C0 43.802 0.198 44 0.44 44H43.56C43.802 44 44 43.802 44 43.56V41.58C44 40.6065 43.2135 39.82 42.24 39.82Z" fill="#F7D40C"/>
</svg>
