<svg width="18" height="16" viewBox="0 0 18 16" fill="none" xmlns="http://www.w3.org/2000/svg">
<path d="M15.7436 0.101562H4.76528C4.4296 0.102682 4.10216 0.206141 3.82625 0.398261C3.55034 0.590382 3.33896 0.862115 3.22006 1.17754L0.945531 7.27113C0.910996 7.3642 0.893391 7.46276 0.893556 7.56209V9.21998C0.893556 10.1343 1.63358 10.8779 2.54356 10.8779H7.17346L6.24781 13.6689C6.16528 13.9182 6.14274 14.1835 6.18203 14.4431C6.22132 14.7028 6.32134 14.9494 6.47386 15.1627C6.78406 15.5938 7.284 15.8516 7.81365 15.8516H9.14355C9.38858 15.8516 9.62041 15.7421 9.77798 15.5531L13.6555 10.8779H15.7436C16.6535 10.8779 17.3936 10.1343 17.3936 9.21998V1.75946C17.3936 0.845128 16.6535 0.101562 15.7436 0.101562ZM8.75663 14.1937H7.812L9.10065 10.3109C9.14194 10.1863 9.1532 10.0537 9.13349 9.92393C9.11379 9.79415 9.06369 9.67093 8.98733 9.56441C8.91096 9.45789 8.81051 9.37112 8.69424 9.31124C8.57797 9.25136 8.44921 9.22008 8.31855 9.21998H2.54356V7.71213L4.76528 1.75946H12.4436V9.74885L8.75663 14.1937ZM14.0936 9.21998V1.75946H15.7436L15.7444 9.21998H14.0936Z" fill="white"/>
</svg>
