<svg width="18" height="12" viewBox="0 0 18 12" fill="none" xmlns="http://www.w3.org/2000/svg">
<path d="M0.854261 5.68391L0.377428 5.34787L0.375713 5.35033L0.854261 5.68391ZM0.844317 6.33177L1.33446 6.01547L1.33282 6.01295L0.844317 6.33177ZM17.1554 6.31901L16.6664 6.00105L16.6652 6.0028L17.1554 6.31901ZM17.25 6.00055H16.6667H17.25ZM17.1554 5.68208L17.6445 5.36412L17.6436 5.36279L17.1554 5.68208ZM8.98717 0.166667C5.87951 0.166667 2.77413 1.94694 0.377434 5.34788L1.33109 6.01993C3.5704 2.84233 6.35394 1.33333 8.98717 1.33333V0.166667ZM0.375713 5.35033C0.243314 5.54028 0.170363 5.76545 0.166803 5.99739L1.33333 6.0153C1.33332 6.0159 1.33322 6.01644 1.33309 6.01684C1.33303 6.01704 1.33296 6.01719 1.3329 6.01731C1.33288 6.01736 1.33285 6.0174 1.33284 6.01743C1.33282 6.01746 1.33281 6.01748 1.33281 6.01748L0.375713 5.35033ZM0.166803 5.99739C0.163243 6.22934 0.229252 6.45667 0.355819 6.65059L1.33282 6.01295C1.33294 6.01314 1.33335 6.01398 1.33333 6.0153L0.166803 5.99739ZM0.354181 6.64807C2.20645 9.51834 5.27368 11.8333 8.98717 11.8333V10.6667C5.78715 10.6667 3.04427 8.665 1.33445 6.01547L0.354181 6.64807ZM8.98717 11.8333C12.6613 11.8333 15.7888 9.51368 17.6456 6.63522L16.6652 6.0028C14.9534 8.65653 12.1514 10.6667 8.98717 10.6667V11.8333ZM17.6445 6.63697C17.7676 6.44767 17.8333 6.22672 17.8333 6.00055H16.6667L16.6664 6.00105L17.6445 6.63697ZM17.8333 6.00055C17.8333 5.77437 17.7676 5.55343 17.6445 5.36412L16.6664 6.00004L16.6667 6.00055H17.8333ZM17.6436 5.36279C15.7851 2.52123 12.6375 0.166667 8.98717 0.166667V1.33333C12.1236 1.33333 14.9489 3.37419 16.6672 6.00138L17.6436 5.36279ZM11.3627 6C11.3627 7.28312 10.3103 8.33333 8.99969 8.33333V9.5C10.9435 9.5 12.5293 7.93854 12.5293 6H11.3627ZM8.99969 8.33333C7.68908 8.33333 6.63672 7.28312 6.63672 6H5.47005C5.47005 7.93854 7.0559 9.5 8.99969 9.5V8.33333ZM6.63672 6C6.63672 4.71688 7.68908 3.66667 8.99969 3.66667V2.5C7.0559 2.5 5.47005 4.06146 5.47005 6H6.63672ZM8.99969 3.66667C10.3103 3.66667 11.3627 4.71688 11.3627 6H12.5293C12.5293 4.06146 10.9435 2.5 8.99969 2.5V3.66667Z" fill="#ACACAC"/>
</svg>
