<svg width="18" height="16" viewBox="0 0 18 16" fill="none" xmlns="http://www.w3.org/2000/svg">
<path d="M15.7436 5.07525H11.1137L12.0401 2.28418C12.2068 1.78018 12.1226 1.22147 11.8133 0.790418C11.5039 0.359365 11.0023 0.101562 10.4735 0.101562H9.14355C8.89853 0.101562 8.6667 0.210983 8.50913 0.399983L4.63163 5.07525H2.54355C1.63358 5.07525 0.893555 5.81881 0.893555 6.73314V14.1937C0.893555 15.108 1.63358 15.8516 2.54355 15.8516H13.5218C13.8575 15.8504 14.185 15.747 14.4609 15.5549C14.7368 15.3627 14.9481 15.091 15.0671 14.7756L17.3416 8.682C17.3761 8.58892 17.3937 8.49037 17.3936 8.39104V6.73314C17.3936 5.81881 16.6535 5.07525 15.7436 5.07525ZM2.54355 6.73314H4.19355V14.1937H2.54355V6.73314ZM15.7436 8.241L13.5218 14.1937H5.84355V6.20427L9.52965 1.75946H10.4751L9.18645 5.64142C9.14462 5.76602 9.13295 5.89885 9.15242 6.02889C9.17188 6.15893 9.22192 6.28243 9.29838 6.38916C9.37483 6.49589 9.47551 6.58277 9.59206 6.64259C9.70861 6.70241 9.83768 6.73345 9.96855 6.73314H15.7436V8.241Z" fill="#2A2A34"/>
</svg>
