<svg width="18" height="24" viewBox="0 0 18 24" fill="none" xmlns="http://www.w3.org/2000/svg">
<path d="M9 23.8125L10.2054 21.45V17.9062H16.2321C16.5518 17.9062 16.8584 17.7818 17.0845 17.5603C17.3105 17.3387 17.4375 17.0383 17.4375 16.725V14.8515C17.4375 14.2302 17.1796 13.6207 16.7312 13.1812L15.0268 11.511V7.275C15.3465 7.275 15.6531 7.15055 15.8791 6.92902C16.1052 6.70749 16.2321 6.40704 16.2321 6.09375V2.55C16.2321 1.24708 15.1509 0.1875 13.8214 0.1875H4.17857C2.84906 0.1875 1.76786 1.24708 1.76786 2.55V6.09375C1.76786 6.40704 1.89485 6.70749 2.1209 6.92902C2.34695 7.15055 2.65353 7.275 2.97321 7.275V11.511L1.26884 13.1812C0.817828 13.6249 0.563953 14.2253 0.5625 14.8515V16.725C0.5625 17.0383 0.689493 17.3387 0.915541 17.5603C1.14159 17.7818 1.44818 17.9062 1.76786 17.9062H7.79464V21.45L9 23.8125ZM4.17857 2.55H13.8214V4.9125H4.17857V2.55ZM2.97321 14.8515L5.03076 12.8351C5.14291 12.7256 5.23185 12.5955 5.29246 12.4521C5.35307 12.3088 5.38416 12.1551 5.38393 12V7.275H12.6161V12C12.6161 12.3142 12.7426 12.6142 12.9692 12.8351L15.0268 14.8515V15.5437H2.97321V14.8515Z" fill="#F7D40C"/>
</svg>
