<svg width="33" height="20" viewBox="0 0 33 20" fill="none" xmlns="http://www.w3.org/2000/svg">
<path d="M31.9723 1.46152C32.195 0.709467 31.9723 0.157959 30.9193 0.157959H27.4309C26.5433 0.157959 26.1376 0.635071 25.9149 1.15908C25.9149 1.15908 24.1413 5.55659 21.628 8.40793C20.8168 9.23762 20.4461 9.49963 20.0039 9.49963C19.7828 9.49963 19.4615 9.23762 19.4615 8.48557V1.46152C19.4615 0.559056 19.2054 0.157959 18.4657 0.157959H12.9842C12.4306 0.157959 12.0966 0.575229 12.0966 0.973091C12.0966 1.82704 13.3532 2.02435 13.4821 4.43093V9.65166C13.4821 10.7951 13.2801 11.0037 12.8347 11.0037C11.6528 11.0037 8.77681 6.59006 7.07 1.53754C6.73755 0.555821 6.40191 0.159577 5.51112 0.159577H2.02433C1.02696 0.159577 0.828125 0.636688 0.828125 1.1607C0.828125 2.10198 2.01001 6.75988 6.33351 12.9203C9.21585 17.1269 13.2737 19.4074 16.9705 19.4074C19.1863 19.4074 19.4599 18.9011 19.4599 18.0278V14.8481C19.4599 13.8357 19.6715 13.6319 20.373 13.6319C20.8883 13.6319 21.776 13.8971 23.8454 15.9236C26.2092 18.327 26.6005 19.4057 27.9288 19.4057H31.4156C32.4113 19.4057 32.9092 18.8995 32.6229 17.9C32.3095 16.9054 31.1801 15.4579 29.6817 13.7451C28.8673 12.7682 27.6504 11.717 27.2798 11.1914C26.7628 10.5137 26.9123 10.2145 27.2798 9.61284C27.2813 9.61446 31.5301 3.53008 31.9723 1.46152Z" fill="white"/>
</svg>
